PathFileType	4	(X/Y/Z)	/home/alexbeat/data/kuopio-gait-dataset/01/mocap/calib_static_markers.trc
DataRate	CameraRate	NumFrames	NumMarkers	Units	OrigDataRate	OrigDataStartFrame	OrigNumFrames
100.000000	100.000000	4	70	mm	100.000000	131	211
Frame#	Time	Pelvis1			Pelvis2			Pelvis3			Pelvis4			Torso1			Torso2			Torso3			Torso4			RFemur1			RFemur2			RFemur3			RFemur4			LFemur1			LFemur2			LFemur3			LFemur4			RTibia1			RTibia2			RTibia3			RTibia4			LTibia1			LTibia2			LTibia3			LTibia4			LFoot1			LFoot2			LFoot3			RFoot1			RFoot2			RFoot3			*30			*31			*32			*33			*34			*35			*36			*37			*38			Pelvis_RFemur_score			Pelvis_LFemur_score			RFemur_RTibia_score			RFemur_RTibia_sara			LFemur_LTibia_score			LFemur_LTibia_sara			RKnee			LKnee			RTibia_RFoot_score			LTibia_LFoot_score			USERMO0			USERMO1			USERMO2			USERMO3			USERMO4			USERMO5			USERMO6			USERMO7			USERMO8			USERMO9			USERMO10			USERMO11			USERMO12			USERMO13			USERMO14			USERMO15			USERMO16			USERMO17			USERMO18			USERMO19			USERMO20			
		X1	Y1	Z1	X2	Y2	Z2	X3	Y3	Z3	X4	Y4	Z4	X5	Y5	Z5	X6	Y6	Z6	X7	Y7	Z7	X8	Y8	Z8	X9	Y9	Z9	X10	Y10	Z10	X11	Y11	Z11	X12	Y12	Z12	X13	Y13	Z13	X14	Y14	Z14	X15	Y15	Z15	X16	Y16	Z16	X17	Y17	Z17	X18	Y18	Z18	X19	Y19	Z19	X20	Y20	Z20	X21	Y21	Z21	X22	Y22	Z22	X23	Y23	Z23	X24	Y24	Z24	X25	Y25	Z25	X26	Y26	Z26	X27	Y27	Z27	X28	Y28	Z28	X29	Y29	Z29	X30	Y30	Z30	X31	Y31	Z31	X32	Y32	Z32	X33	Y33	Z33	X34	Y34	Z34	X35	Y35	Z35	X36	Y36	Z36	X37	Y37	Z37	X38	Y38	Z38	X39	Y39	Z39	X40	Y40	Z40	X41	Y41	Z41	X42	Y42	Z42	X43	Y43	Z43	X44	Y44	Z44	X45	Y45	Z45	X46	Y46	Z46	X47	Y47	Z47	X48	Y48	Z48	X49	Y49	Z49	X50	Y50	Z50	X51	Y51	Z51	X52	Y52	Z52	X53	Y53	Z53	X54	Y54	Z54	X55	Y55	Z55	X56	Y56	Z56	X57	Y57	Z57	X58	Y58	Z58	X59	Y59	Z59	X60	Y60	Z60	X61	Y61	Z61	X62	Y62	Z62	X63	Y63	Z63	X64	Y64	Z64	X65	Y65	Z65	X66	Y66	Z66	X67	Y67	Z67	X68	Y68	Z68	X69	Y69	Z69	X70	Y70	Z70	

132	1.31	306.5625	-345.1170043945312	1027.703247070312	225.9763946533203	-347.8298950195312	1030.468994140625	227.9042816162109	-315.8304138183594	916.3887939453125	297.5946350097656	-314.5236511230469	917.0647583007812	262.2094421386719	-504.0492858886719	1423.146728515625	91.11945343017578	-448.7777404785156	1440.624267578125	435.5254211425781	-442.7330017089844	1465.572021484375	253.7910766601562	-370.6353149414062	1491.351928710938	91.14836120605469	-398.2485961914062	647.4024047851562	101.3808898925781	-394.2460632324219	545.1919555664062	89.77718353271484	-422.6681823730469	592.3419189453125	85.09583282470703	-459.8439636230469	591.5242919921875	434.3872985839844	-421.8667602539062	668.77587890625	433.6057739257812	-483.2992553710938	632.13330078125	423.4540100097656	-422.84326171875	563.1204833984375	434.5247497558594	-441.2892456054688	634.1265258789062	93.05319213867188	-377.30810546875	363.6257934570312	97.11422729492188	-396.4661560058594	419.1620788574219	92.16362762451172	-391.6917114257812	317.54443359375	109.5415344238281	-338.8788146972656	366.5194091796875	426.418701171875	-363.5472106933594	372.4949951171875	432.0947570800781	-405.1689758300781	350.3598327636719	424.017333984375	-412.8854675292969	285.2137145996094	424.7496032714844	-430.2170104980469	394.6168823242188	335.2884216308594	-320.4058532714844	28.12632369995117	377.7890319824219	-555.297607421875	23.26158332824707	421.9696044921875	-505.9805908203125	23.16836547851562	179.6650543212891	-331.4469909667969	26.48733520507812	118.1918258666992	-561.9985961914062	22.24408340454102	76.26519775390625	-505.986328125	20.97684860229492	1498.233154296875	1841.75	615.1044311523438	1584.322387695312	1909.342895507812	704.5462036132812	1627.216918945312	1802.682373046875	662.8223266601562	1628.116821289062	1821.219970703125	658.263671875	-3557.0419921875	-673.43115234375	994.5120239257812	-3552.516357421875	-669.4732666015625	971.5213012695312	1492.746337890625	1874.324096679688	602.43603515625	nan	nan	nan	nan	nan	nan	140.03515625	-453.6005249023438	904.0603637695312	375.5812072753906	-457.6781921386719	892.2650146484375	145.2467346191406	-417.2984008789062	461.2526550292969	244.0133666992188	-431.8462829589844	467.0414733886719	364.3575439453125	-433.1883239746094	458.396484375	264.4779357910156	-437.1583557128906	461.2777404785156	145.2469940185547	-417.2980041503906	461.2529907226562	364.3580017089844	-433.18798828125	458.39599609375	223.0334014892578	-356.7513427734375	8.869439125061035	373.1539306640625	-337.543212890625	18.59288215637207	-0.8910433650016785	1.48214316368103	-0.7366406321525574	0.4305605888366699	-0.4426857233047485	0.6213587522506714	0.1000000014901161	0.1000000014901161	0.1000000014901161	-0.0004299753054510802	0.02922957576811314	-1.385855793952942	0.3783490359783173	-0.4605613648891449	0.0248520914465189	0.1000000014901161	0.1000000014901161	0.1000000014901161	-1.074425220489502	1.399133563041687	-0.6336901187896729	0.4275418817996979	-0.3938699662685394	0.3360178768634796	0.1000000014901161	0.1000000014901161	0.1000000014901161	-0.07585611939430237	2.507278919219971	-1.899684309959412	0.2534341812133789	-0.3362527787685394	0.9916135668754578	0.1000000014901161	0.1000000014901161	0.1000000014901161	2.463285207748413	-0.2029828131198883	-2.239094495773315	0.09418132156133652	-0.4050883054733276	0.5949665307998657	0.1000000014901161	0.1000000014901161	0.1000000014901161	-1.881893754005432	2.469356060028076	-0.02859887294471264	0.1247073635458946	-0.4664773046970367	0.02323609031736851	0.1000000014901161	0.1000000014901161	0.1000000014901161	2.463644504547119	-0.3341370522975922	2.32912802696228	0.0941394567489624	-0.3884782791137695	0.3667358160018921	0.1000000014901161	0.1000000014901161	0.1000000014901161	
133	1.32	306.5530700683594	-345.1453552246094	1027.705932617188	225.9582824707031	-347.8715209960938	1030.487915039062	227.8929138183594	-315.85986328125	916.41259765625	297.5754089355469	-314.5963134765625	917.0573120117188	262.2093200683594	-504.1037902832031	1423.1611328125	91.12959289550781	-448.8348083496094	1440.656372070312	435.540771484375	-442.7759094238281	1465.57568359375	253.8211822509766	-370.6847534179688	1491.351440429688	91.12913513183594	-398.2996520996094	647.398681640625	101.3722915649414	-394.2611999511719	545.1903076171875	89.79210662841797	-422.6835327148438	592.3333129882812	85.10002136230469	-459.8666076660156	591.50341796875	434.3765563964844	-421.9078369140625	668.78466796875	433.5675354003906	-483.3245544433594	632.1594848632812	423.3987731933594	-422.8665771484375	563.1165771484375	434.5301513671875	-441.3218383789062	634.1329345703125	93.02934265136719	-377.3335266113281	363.6099853515625	97.08987426757812	-396.4966735839844	419.1629638671875	92.17935180664062	-391.7061462402344	317.5246887207031	109.5325317382812	-338.8795471191406	366.525390625	426.4146728515625	-363.5819396972656	372.4999694824219	432.0838928222656	-405.2130737304688	350.3822631835938	424.0057067871094	-412.8758239746094	285.2202453613281	424.7449340820312	-430.2437133789062	394.6185607910156	335.2898864746094	-320.4289245605469	28.12411117553711	377.7804565429688	-555.31591796875	23.25407981872559	421.9483947753906	-505.9762268066406	23.17609596252441	179.6554565429688	-331.45263671875	26.49744987487793	118.1965637207031	-562.0010986328125	22.23945617675781	76.25392913818359	-505.9951171875	20.97907447814941	1498.185913085938	1841.715454101562	614.9440307617188	1584.31689453125	1909.357299804688	704.5645141601562	nan	nan	nan	1628.115600585938	1821.209228515625	658.27685546875	nan	nan	nan	nan	nan	nan	nan	nan	nan	nan	nan	nan	nan	nan	nan	139.9949798583984	-453.66845703125	904.076171875	375.6008605957031	-457.7201232910156	892.2889404296875	145.2327880859375	-417.2955627441406	461.2545471191406	244.0012512207031	-431.8218994140625	467.0662231445312	364.3060607910156	-433.2222595214844	458.4173278808594	264.4264526367188	-437.1745300292969	461.3224487304688	145.2330017089844	-417.2959899902344	461.2550048828125	364.3059997558594	-433.2219848632812	458.4169921875	223.0931701660156	-356.7194213867188	8.895201683044434	373.1427917480469	-337.51123046875	18.61111259460449	-0.8911184668540955	1.482671976089478	-0.7367027997970581	0.4305343925952911	-0.4427161812782288	0.6213685870170593	0.1000000014901161	0.1000000014901161	0.1000000014901161	-0.0001973895559785888	0.02906709536910057	-1.385883569717407	0.3783395886421204	-0.4605737328529358	0.02485143020749092	0.1000000014901161	0.1000000014901161	0.1000000014901161	-1.07415497303009	1.399298429489136	-0.6335306167602539	0.4275343120098114	-0.393889844417572	0.3360292911529541	0.1000000014901161	0.1000000014901161	0.1000000014901161	-0.07572999596595764	2.507347822189331	-1.900008916854858	0.2534211575984955	-0.336290717124939	0.9916254281997681	0.1000000014901161	0.1000000014901161	0.1000000014901161	2.463440656661987	-0.2022889256477356	-2.239069938659668	0.09417538344860077	-0.4051139652729034	0.5949622988700867	0.1000000014901161	0.1000000014901161	0.1000000014901161	-1.881946921348572	2.469320774078369	-0.02843269146978855	0.1247019842267036	-0.4664829671382904	0.0232386626303196	0.1000000014901161	0.1000000014901161	0.1000000014901161	2.463421821594238	-0.3340252935886383	2.329806327819824	0.09413152188062668	-0.3884968459606171	0.3667250871658325	0.1000000014901161	0.1000000014901161	0.1000000014901161	
134	1.33	306.5225830078125	-345.1681518554688	1027.7216796875	225.9634094238281	-347.8981323242188	1030.492553710938	227.8628082275391	-315.8997192382812	916.4196166992188	297.5724182128906	-314.6559143066406	917.0610961914062	262.2359008789062	-504.16015625	1423.1669921875	91.15608215332031	-448.8918151855469	1440.7001953125	435.5392456054688	-442.8294677734375	1465.570068359375	253.8456420898438	-370.738525390625	1491.368530273438	91.12805938720703	-398.3232116699219	647.4415893554688	101.3686599731445	-394.2799377441406	545.230224609375	89.77983856201172	-422.7130432128906	592.357666015625	85.08800506591797	-459.8920593261719	591.5353393554688	434.3874206542969	-421.9477233886719	668.7935180664062	433.5949096679688	-483.3879699707031	632.1654052734375	423.4020385742188	-422.8935241699219	563.1109008789062	434.542724609375	-441.3681030273438	634.139404296875	93.03717803955078	-377.3355712890625	363.6193542480469	97.09210968017578	-396.5009155273438	419.1981201171875	92.14921569824219	-391.7434387207031	317.5567626953125	109.5188751220703	-338.8843994140625	366.5438842773438	426.4058532714844	-363.599609375	372.5066528320312	432.0814819335938	-405.2246704101562	350.3822631835938	424.02392578125	-412.9161987304688	285.2402954101562	424.7467346191406	-430.2620849609375	394.6237487792969	335.2800903320312	-320.43212890625	28.15606307983398	377.7907104492188	-555.3121337890625	23.27858543395996	421.9588012695312	-505.9862365722656	23.19535064697266	179.6685028076172	-331.458251953125	26.50309371948242	118.2162017822266	-562.0073852539062	22.25776672363281	76.27098846435547	-506.0032348632812	20.99588203430176	1498.275024414062	1841.728881835938	615.1566772460938	1584.309936523438	1909.349243164062	704.5211181640625	1627.417236328125	1802.6494140625	662.8828735351562	1628.107055664062	1821.229370117188	658.2880859375	nan	nan	nan	nan	nan	nan	nan	nan	nan	nan	nan	nan	nan	nan	nan	139.9811859130859	-453.7210083007812	904.10986328125	375.6047973632812	-457.7977905273438	892.3079833984375	145.2371368408203	-417.2969360351562	461.2821350097656	244.0057525634766	-431.8271789550781	467.08154296875	364.3026428222656	-433.2528686523438	458.4225158691406	264.4239196777344	-437.2309265136719	461.3226928710938	145.2369995117188	-417.2969970703125	461.2820129394531	364.3030090332031	-433.2529907226562	458.4230041503906	223.0464630126953	-356.7734985351562	8.88973331451416	373.1611022949219	-337.5580444335938	18.61870002746582	-0.8912368416786194	1.482602119445801	-0.7363831996917725	0.4305478036403656	-0.4427601397037506	0.6213724613189697	0.1000000014901161	0.1000000014901161	0.1000000014901161	-0.0002744302910286933	0.02917486988008022	-1.385807752609253	0.3783432245254517	-0.4605768620967865	0.024876669049263	0.1000000014901161	0.1000000014901161	0.1000000014901161	-1.074367046356201	1.398966312408447	-0.6335574984550476	0.427536815404892	-0.3939141035079956	0.3360358774662018	0.1000000014901161	0.1000000014901161	0.1000000014901161	-0.0756685733795166	2.507190704345703	-1.900315999984741	0.2534065544605255	-0.3363231718540192	0.9916346073150635	0.1000000014901161	0.1000000014901161	0.1000000014901161	2.46352219581604	-0.2023746818304062	-2.239217519760132	0.09417010098695755	-0.4051387310028076	0.594998300075531	0.1000000014901161	0.1000000014901161	0.1000000014901161	-1.882011532783508	2.469335079193115	-0.02846400812268257	0.1247185692191124	-0.4664896428585052	0.02325224876403809	0.1000000014901161	0.1000000014901161	0.1000000014901161	2.463644027709961	-0.3336750864982605	2.329346656799316	0.09412378072738647	-0.3885091543197632	0.3667533099651337	0.1000000014901161	0.1000000014901161	0.1000000014901161	
135	1.34	306.517578125	-345.1907958984375	1027.703247070312	225.9597015380859	-347.9221801757812	1030.480346679688	227.8577728271484	-315.9325866699219	916.4126586914062	297.5663757324219	-314.6679382324219	917.0504760742188	262.2536010742188	-504.2554626464844	1423.191772460938	91.18202209472656	-448.9585266113281	1440.71240234375	435.5744323730469	-442.8872680664062	1465.58642578125	253.8711700439453	-370.7747497558594	1491.359741210938	91.15303039550781	-398.3281860351562	647.4143676757812	101.3770599365234	-394.2882995605469	545.201904296875	89.7989501953125	-422.7545166015625	592.3434448242188	85.08453369140625	-459.9159240722656	591.515869140625	434.3938598632812	-421.9667358398438	668.7837524414062	433.5576171875	-483.4031677246094	632.1336059570312	423.4265747070312	-422.9470520019531	563.1083374023438	434.5494079589844	-441.4069519042969	634.1508178710938	93.03565216064453	-377.3623657226562	363.6145629882812	97.09300994873047	-396.5498046875	419.1692810058594	92.08828735351562	-391.7531433105469	317.5616455078125	109.5019912719727	-338.9224853515625	366.5292358398438	426.3990173339844	-363.6181640625	372.5074462890625	432.07958984375	-405.2435913085938	350.3924255371094	424.0241394042969	-412.9133911132812	285.2234497070312	424.7377319335938	-430.2745971679688	394.6144714355469	335.2640075683594	-320.4278564453125	28.15517234802246	377.7974243164062	-555.3309936523438	23.26306343078613	421.9510803222656	-505.9896240234375	23.16881370544434	179.6542663574219	-331.4736633300781	26.48535537719727	118.2108383178711	-562.0208740234375	22.24969863891602	76.24622344970703	-506.0167541503906	20.97949600219727	1498.146118164062	1841.713989257812	615.0548706054688	1584.295532226562	1909.330200195312	704.5140380859375	nan	nan	nan	1628.107177734375	1821.248168945312	658.2481079101562	nan	nan	nan	nan	nan	nan	nan	nan	nan	nan	nan	nan	nan	nan	nan	140.0158386230469	-453.7445678710938	904.08837890625	375.5832824707031	-457.7734069824219	892.2927856445312	145.2464599609375	-417.3531188964844	461.2390441894531	244.0139465332031	-431.9081420898438	466.9953308105469	364.3111267089844	-433.2721252441406	458.40478515625	264.430419921875	-437.2112426757812	461.2911987304688	145.2460021972656	-417.3529968261719	461.239013671875	364.3110046386719	-433.2720031738281	458.4049987792969	222.9189453125	-356.7579345703125	8.84348201751709	373.1691589355469	-337.5381164550781	18.61476516723633	-0.8907706141471863	1.482834577560425	-0.73712158203125	0.4305481016635895	-0.442791610956192	0.6213641762733459	0.1000000014901161	0.1000000014901161	0.1000000014901161	-0.0004545616393443197	0.02940835244953632	-1.38573944568634	0.3783375024795532	-0.4605828523635864	0.02486235089600086	0.1000000014901161	0.1000000014901161	0.1000000014901161	-1.074167728424072	1.398928165435791	-0.6334959268569946	0.4275341928005219	-0.3939234614372253	0.3360337018966675	0.1000000014901161	0.1000000014901161	0.1000000014901161	-0.0758243128657341	2.50715446472168	-1.900244235992432	0.2534023821353912	-0.3363478481769562	0.9916225075721741	0.1000000014901161	0.1000000014901161	0.1000000014901161	2.46338677406311	-0.202734500169754	-2.239460706710815	0.09418536722660065	-0.4051588475704193	0.5949748158454895	0.1000000014901161	0.1000000014901161	0.1000000014901161	-1.881999731063843	2.469298839569092	-0.02863139100372791	0.1247037798166275	-0.466503769159317	0.02323818579316139	0.1000000014901161	0.1000000014901161	0.1000000014901161	2.464248657226562	-0.3345252275466919	2.32854175567627	0.0941007137298584	-0.3885389566421509	0.3667410314083099	0.1000000014901161	0.1000000014901161	0.1000000014901161	
